<svg width="175" height="44" viewBox="0 0 175 44" fill="none" xmlns="http://www.w3.org/2000/svg">
<path d="M6.79499 1.68291C6.9507 0.713168 7.78752 0 8.76969 0H172.595C173.846 0 174.79 1.13475 174.562 2.36435L167.151 42.3644C166.975 43.3123 166.148 44 165.184 44H2.34677C1.11569 44 0.176884 42.8984 0.372061 41.6829L6.79499 1.68291Z" fill="#E11138"/>
<path d="M39.8966 13.3156L35.2866 31H30.0719L27.2505 19.3615L24.3283 31H19.1136L14.6295 13.3156H19.2396L21.7839 26.1884L24.9329 13.3156H29.6689L32.6918 26.1884L35.2614 13.3156H39.8966ZM55.3077 23.7449C55.3077 24.1479 55.2825 24.5678 55.2321 25.0044H45.483C45.5502 25.8777 45.8273 26.5495 46.3143 27.0197C46.8182 27.4732 47.4312 27.6999 48.1533 27.6999C49.2282 27.6999 49.9755 27.2465 50.3954 26.3396H54.9802C54.7451 27.2633 54.3168 28.0946 53.6954 28.8335C53.0908 29.5725 52.3267 30.1519 51.403 30.5717C50.4793 30.9916 49.4465 31.2015 48.3045 31.2015C46.9273 31.2015 45.7013 30.9076 44.6265 30.3198C43.5517 29.732 42.712 28.8923 42.1074 27.8007C41.5028 26.709 41.2005 25.4327 41.2005 23.9716C41.2005 22.5105 41.4944 21.2341 42.0822 20.1425C42.6868 19.0508 43.5265 18.2111 44.6013 17.6233C45.6762 17.0355 46.9105 16.7416 48.3045 16.7416C49.6648 16.7416 50.874 17.0271 51.932 17.5981C52.9901 18.1691 53.813 18.9837 54.4008 20.0417C55.0054 21.0997 55.3077 22.3341 55.3077 23.7449ZM50.8992 22.6112C50.8992 21.8723 50.6473 21.2845 50.1434 20.8478C49.6396 20.4112 49.0098 20.1929 48.2541 20.1929C47.5319 20.1929 46.9189 20.4028 46.4151 20.8226C45.9281 21.2425 45.6258 21.8387 45.5082 22.6112H50.8992ZM61.888 18.9333C62.2911 18.2783 62.8705 17.7493 63.6262 17.3462C64.3819 16.9431 65.2469 16.7416 66.2209 16.7416C67.3797 16.7416 68.4294 17.0355 69.3699 17.6233C70.3103 18.2111 71.0493 19.0508 71.5867 20.1425C72.1409 21.2341 72.418 22.5021 72.418 23.9464C72.418 25.3907 72.1409 26.6671 71.5867 27.7755C71.0493 28.8671 70.3103 29.7152 69.3699 30.3198C68.4294 30.9076 67.3797 31.2015 66.2209 31.2015C65.2301 31.2015 64.3652 31.0084 63.6262 30.6221C62.8873 30.2191 62.3078 29.69 61.888 29.0351V31H57.5802V12.3583H61.888V18.9333ZM68.0347 23.9464C68.0347 22.8715 67.7324 22.0318 67.1278 21.4272C66.54 20.8058 65.8095 20.4951 64.9362 20.4951C64.0796 20.4951 63.3491 20.8058 62.7445 21.4272C62.1567 22.0486 61.8628 22.8967 61.8628 23.9716C61.8628 25.0464 62.1567 25.8945 62.7445 26.5159C63.3491 27.1373 64.0796 27.448 64.9362 27.448C65.7927 27.448 66.5232 27.1373 67.1278 26.5159C67.7324 25.8777 68.0347 25.0212 68.0347 23.9464Z" fill="black"/>
<path d="M73.9474 22.1326C73.9474 20.386 74.3253 18.8325 75.081 17.4722C75.8368 16.095 76.8864 15.0286 78.23 14.2728C79.5903 13.5003 81.127 13.114 82.84 13.114C84.9393 13.114 86.7363 13.6683 88.231 14.7767C89.7257 15.8851 90.725 17.3966 91.2288 19.3111H86.4928C86.1401 18.5722 85.6363 18.0096 84.9813 17.6233C84.3431 17.237 83.6126 17.0439 82.7896 17.0439C81.4629 17.0439 80.3881 17.5058 79.5651 18.4294C78.7422 19.3531 78.3308 20.5875 78.3308 22.1326C78.3308 23.6777 78.7422 24.9121 79.5651 25.8357C80.3881 26.7594 81.4629 27.2213 82.7896 27.2213C83.6126 27.2213 84.3431 27.0281 84.9813 26.6419C85.6363 26.2556 86.1401 25.693 86.4928 24.954H91.2288C90.725 26.8686 89.7257 28.3801 88.231 29.4885C86.7363 30.5801 84.9393 31.126 82.84 31.126C81.127 31.126 79.5903 30.7481 78.23 29.9923C76.8864 29.2198 75.8368 28.1534 75.081 26.793C74.3253 25.4327 73.9474 23.8792 73.9474 22.1326ZM93.0103 23.9464C93.0103 22.5021 93.279 21.2341 93.8164 20.1425C94.3706 19.0508 95.118 18.2111 96.0585 17.6233C96.999 17.0355 98.0486 16.7416 99.2074 16.7416C100.198 16.7416 101.063 16.9431 101.802 17.3462C102.558 17.7493 103.137 18.2783 103.54 18.9333V16.9431H107.848V31H103.54V29.0099C103.12 29.6649 102.533 30.1939 101.777 30.5969C101.038 31 100.173 31.2015 99.1822 31.2015C98.0402 31.2015 96.999 30.9076 96.0585 30.3198C95.118 29.7152 94.3706 28.8671 93.8164 27.7755C93.279 26.6671 93.0103 25.3907 93.0103 23.9464ZM103.54 23.9716C103.54 22.8967 103.238 22.0486 102.633 21.4272C102.046 20.8058 101.324 20.4951 100.467 20.4951C99.6105 20.4951 98.8799 20.8058 98.2753 21.4272C97.6875 22.0318 97.3936 22.8715 97.3936 23.9464C97.3936 25.0212 97.6875 25.8777 98.2753 26.5159C98.8799 27.1373 99.6105 27.448 100.467 27.448C101.324 27.448 102.046 27.1373 102.633 26.5159C103.238 25.8945 103.54 25.0464 103.54 23.9716ZM115.272 19.286C115.776 18.5134 116.406 17.9088 117.162 17.4722C117.917 17.0187 118.757 16.792 119.681 16.792V21.3517H118.497C117.422 21.3517 116.616 21.5868 116.078 22.057C115.541 22.5105 115.272 23.3166 115.272 24.4754V31H110.965V16.9431H115.272V19.286ZM126.048 19.286C126.551 18.5134 127.181 17.9088 127.937 17.4722C128.693 17.0187 129.532 16.792 130.456 16.792V21.3517H129.272C128.197 21.3517 127.391 21.5868 126.854 22.057C126.316 22.5105 126.048 23.3166 126.048 24.4754V31H121.74V16.9431H126.048V19.286ZM138.914 31.2015C137.537 31.2015 136.294 30.9076 135.185 30.3198C134.094 29.732 133.229 28.8923 132.591 27.8007C131.969 26.709 131.659 25.4327 131.659 23.9716C131.659 22.5273 131.978 21.2593 132.616 20.1677C133.254 19.0592 134.127 18.2111 135.236 17.6233C136.344 17.0355 137.587 16.7416 138.964 16.7416C140.341 16.7416 141.584 17.0355 142.692 17.6233C143.801 18.2111 144.674 19.0592 145.312 20.1677C145.951 21.2593 146.27 22.5273 146.27 23.9716C146.27 25.4159 145.942 26.6923 145.287 27.8007C144.649 28.8923 143.767 29.732 142.642 30.3198C141.534 30.9076 140.291 31.2015 138.914 31.2015ZM138.914 27.4732C139.737 27.4732 140.434 27.1709 141.005 26.5663C141.592 25.9617 141.886 25.0968 141.886 23.9716C141.886 22.8464 141.601 21.9814 141.03 21.3769C140.476 20.7723 139.787 20.47 138.964 20.47C138.124 20.47 137.427 20.7723 136.873 21.3769C136.319 21.9647 136.042 22.8296 136.042 23.9716C136.042 25.0968 136.311 25.9617 136.848 26.5663C137.402 27.1709 138.091 27.4732 138.914 27.4732ZM154.273 31.2015C153.047 31.2015 151.956 30.9916 150.999 30.5717C150.041 30.1519 149.286 29.5809 148.731 28.8587C148.177 28.1198 147.866 27.2969 147.799 26.39H152.057C152.107 26.877 152.334 27.2717 152.737 27.574C153.14 27.8763 153.635 28.0274 154.223 28.0274C154.76 28.0274 155.172 27.9266 155.457 27.7251C155.76 27.5068 155.911 27.2297 155.911 26.8938C155.911 26.4907 155.701 26.1968 155.281 26.0121C154.861 25.8106 154.181 25.5922 153.241 25.3571C152.233 25.122 151.393 24.8785 150.721 24.6266C150.05 24.3578 149.47 23.9464 148.983 23.3922C148.496 22.8212 148.253 22.057 148.253 21.0997C148.253 20.2936 148.471 19.5631 148.908 18.9081C149.361 18.2363 150.016 17.7073 150.873 17.321C151.746 16.9348 152.779 16.7416 153.971 16.7416C155.735 16.7416 157.12 17.1783 158.128 18.0516C159.152 18.9249 159.74 20.0837 159.891 21.528H155.911C155.844 21.041 155.625 20.6547 155.256 20.3692C154.903 20.0837 154.433 19.9409 153.845 19.9409C153.341 19.9409 152.955 20.0417 152.686 20.2432C152.418 20.428 152.283 20.6883 152.283 21.0242C152.283 21.4272 152.493 21.7295 152.913 21.9311C153.35 22.1326 154.022 22.3341 154.928 22.5357C155.97 22.8044 156.818 23.0731 157.473 23.3418C158.128 23.5937 158.699 24.0136 159.186 24.6014C159.69 25.1724 159.95 25.9449 159.967 26.919C159.967 27.7419 159.732 28.4809 159.261 29.1358C158.808 29.774 158.145 30.2778 157.271 30.6473C156.415 31.0168 155.415 31.2015 154.273 31.2015Z" fill="white"/>
</svg>
